<?xml version="1.0" encoding="iso-8859-1"?>
<!-- Generator: Adobe Illustrator 19.0.0, SVG Export Plug-In . SVG Version: 6.00 Build 0)  -->
<svg version="1.1" id="Capa_1" xmlns="http://www.w3.org/2000/svg" xmlns:xlink="http://www.w3.org/1999/xlink" x="0px" y="0px"
	 viewBox="0 0 60 60" style="enable-background:new 0 0 60 60;" xml:space="preserve">
<path d="M56,18h-5H31v-2h20h5c0.553,0,1-0.447,1-1s-0.447-1-1-1h-5c-3.34,0-5.437-1.138-7.865-2.455
	C40.232,9.97,36.956,8.198,31,8.018V6c0.266,0,0.52-0.105,0.707-0.293l1-1C32.895,4.52,33,4.266,33,4V2
	c0-0.266-0.105-0.52-0.293-0.707l-1-1C31.52,0.105,31.266,0,31,0h-2c-0.266,0-0.52,0.105-0.707,0.293l-1,1
	C27.105,1.48,27,1.734,27,2v2c0,0.266,0.105,0.52,0.293,0.707l1,1C28.48,5.895,28.734,6,29,6v2.018
	c-5.944,0.18-9.205,1.947-12.095,3.519C14.475,12.858,12.375,14,9,14H4c-0.553,0-1,0.447-1,1s0.447,1,1,1h5h20v2H9H4
	c-0.553,0-1,0.447-1,1s0.447,1,1,1h5c3.34,0,5.437,1.138,7.865,2.455c2.903,1.575,6.179,3.347,12.135,3.527v20.604L17.293,58.293
	c-0.391,0.391-0.391,1.023,0,1.414C17.488,59.902,17.744,60,18,60s0.512-0.098,0.707-0.293L29,49.414V59c0,0.553,0.447,1,1,1
	s1-0.447,1-1v-9.586l10.293,10.293C41.488,59.902,41.744,60,42,60s0.512-0.098,0.707-0.293c0.391-0.391,0.391-1.023,0-1.414
	L31,46.586V25.982c5.944-0.18,9.205-1.947,12.095-3.519C45.525,21.142,47.625,20,51,20h5c0.553,0,1-0.447,1-1S56.553,18,56,18z
	 M29,2.414L29.414,2h1.172L31,2.414v1.172L30.586,4h-1.172L29,3.586V2.414z M17.86,13.294C20.839,11.675,23.919,10,30,10
	c6.093,0,9.188,1.679,12.182,3.303c0.438,0.238,0.874,0.47,1.312,0.697H16.534C16.977,13.77,17.417,13.535,17.86,13.294z
	 M42.14,20.706C39.161,22.325,36.081,24,30,24c-6.093,0-9.188-1.679-12.182-3.303c-0.438-0.238-0.874-0.47-1.312-0.697h26.959
	C43.023,20.23,42.583,20.465,42.14,20.706z"/>
<g>
</g>
<g>
</g>
<g>
</g>
<g>
</g>
<g>
</g>
<g>
</g>
<g>
</g>
<g>
</g>
<g>
</g>
<g>
</g>
<g>
</g>
<g>
</g>
<g>
</g>
<g>
</g>
<g>
</g>
</svg>
